:version 1.10
:name ASF
:units
  mass 1
  length 1
  angle deg
:documentation
  ASF file generated by Kaydara
:root
  axis xyz
  order  tx ty tz rx ry rz
  position 0 0 0
  orientation 0 0 0
:bonedata
  begin
    id 1
    name RightUpLegDummy
    direction -0.718183 -0.695806 0.00816078
    length 4.904
    axis 0 0 0 xyz
  end
  begin
    id 2
    name RightUpLeg
    direction 3.53373e-006 -0.995788 0.0916898
    length 17.4976
    axis -3.49089 -0.000906625 0.000286804 xyz
    dof rx ry rz
  end
  begin
    id 3
    name RightLeg
    direction 0.00371092 -0.995096 -0.0988419
    length 16.5821
    axis 3.68512 0.0193738 -0.131023 xyz
    dof rx ry rz
  end
  begin
    id 4
    name RightFoot
    direction 0.00079151 -0.46099 0.887405
    length 3.77069
    axis 4.81691e-005 -0.120479 -0.188788 xyz
    dof rx ry rz
  end
  begin
    id 5
    name RightToes
    direction 0 0 0
    length 0
    axis 0 0 0 xyz
    dof rx ry rz
  end
  begin
    id 6
    name SpineDummy
    direction 8.3039e-015 1 4.57515e-016
    length 4.6813
    axis 0 0 0 xyz
  end
  begin
    id 7
    name Spine
    direction -3.15643e-008 0.999988 0.00495137
    length 10.1015
    axis -0.001389 0.000121418 2.40972e-006 xyz
    dof rx ry rz
  end
  begin
    id 8
    name Spine1
    direction 0 0 0
    length 0
    axis -0.001389 0.000121451 1.30017e-006 xyz
    dof rx ry rz
  end
  begin
    id 9
    name HEadDummy
    direction -1.99912e-008 0.999999 0.00127422
    length 3.43865
    axis -0.001389 0.000121451 1.30017e-006 xyz
  end
  begin
    id 10
    name HEad
    direction 0 0 0
    length 0
    axis 0 0 0 xyz
    dof rx ry rz
  end
  begin
    id 11
    name LeftShoulder1Dummy
    direction 0.998891 -0.0402509 -0.0244456
    length 3.5433
    axis -0.001389 0.000121451 1.30017e-006 xyz
  end
  begin
    id 12
    name LeftShoulder1
    direction 0.99951 -0.000327763 0.0313091
    length 4.05031
    axis -0.001389 0.000121451 1.30017e-006 xyz
    dof rx ry rz
  end
  begin
    id 13
    name LeftArm
    direction 0.998561 -0.00100056 -0.0536182
    length 10.3537
    axis -23.1894 0.134784 0.967509 xyz
    dof rx ry rz
  end
  begin
    id 14
    name LeftForeArm
    direction 0.998903 0.00866432 0.046012
    length 8.70632
    axis -9.91835 -0.06569 -0.177794 xyz
    dof rx ry rz
  end
  begin
    id 15
    name LeftHand
    direction 0 0 0
    length 0
    axis 0 0 0 xyz
    dof rx ry rz
  end
  begin
    id 16
    name RightShoulderDummy
    direction -0.998891 -0.0402509 -0.0244414
    length 3.5433
    axis -0.001389 0.000121451 1.30017e-006 xyz
  end
  begin
    id 17
    name RightShoulder
    direction -0.99951 -0.000327807 0.0313133
    length 4.05031
    axis 0.215806 0.000203643 -0.0068026 xyz
    dof rx ry rz
  end
  begin
    id 18
    name RightArm
    direction -0.998573 -0.000999564 -0.053403
    length 10.3947
    axis -23.2009 -0.134239 -0.964101 xyz
    dof rx ry rz
  end
  begin
    id 19
    name RightForeArm
    direction -0.998898 0.00868028 0.0461306
    length 8.68355
    axis -9.92322 0.0658061 0.178868 xyz
    dof rx ry rz
  end
  begin
    id 20
    name RightHand
    direction 0 0 0
    length 0
    axis 0 0 0 xyz
    dof rx ry rz
  end
  begin
    id 21
    name LeftUpLegDummy
    direction 0.718183 -0.695806 0.00816078
    length 4.904
    axis 0 0 0 xyz
  end
  begin
    id 22
    name LeftUpLeg
    direction -6.81752e-006 -0.995793 0.0916337
    length 17.4976
    axis -3.48766 0.00143442 -0.000524262 xyz
    dof rx ry rz
  end
  begin
    id 23
    name LeftLeg
    direction -0.00601358 -0.995091 -0.0987824
    length 16.5821
    axis 3.68178 -0.00654042 -0.000285133 xyz
    dof rx ry rz
  end
  begin
    id 24
    name LeftFoot
    direction -0.00417578 -0.460984 0.887399
    length 3.77069
    axis 1.87233e-006 4.66016e-005 -8.6538e-006 xyz
    dof rx ry rz
  end
  begin
    id 25
    name LeftToes
    direction 0 0 0
    length 0
    axis 0 0 0 xyz
    dof rx ry rz
  end
:hierarchy
  begin
    root RightUpLegDummy SpineDummy LeftUpLegDummy
    RightUpLegDummy RightUpLeg
    RightUpLeg RightLeg
    RightLeg RightFoot
    RightFoot RightToes
    SpineDummy Spine
    Spine Spine1
    Spine1 HEadDummy LeftShoulder1Dummy RightShoulderDummy
    HEadDummy HEad
    LeftShoulder1Dummy LeftShoulder1
    LeftShoulder1 LeftArm
    LeftArm LeftForeArm
    LeftForeArm LeftHand
    RightShoulderDummy RightShoulder
    RightShoulder RightArm
    RightArm RightForeArm
    RightForeArm RightHand
    LeftUpLegDummy LeftUpLeg
    LeftUpLeg LeftLeg
    LeftLeg LeftFoot
    LeftFoot LeftToes
  end

:SAMPLES-PER-SECOND 30
:FULLY-SPECIFIED
:DEGREES
16
root  71.3704 40.4394 -0.99516 -145.045 -87.9108 145.227
RightUpLeg  1.39387 -8.51806 -6.2894
RightLeg  4.61226 -2.6355 3.3398
RightFoot  -4.43808 -0.0415201 0.247286
RightToes  0.000481921 0.542163 -0.142578
Spine  0.806581 0.108526 -2.98277
Spine1  4.15729 -0.539796 3.38456
HEad  4.43063 2.18524 0.240749
LeftShoulder1  1.04246 -2.26905 -10.7486
LeftArm  -16.4618 9.93635 0.705034
LeftForeArm  20.646 -2.02189 -1.45706
LeftHand  -0.25398 0.0180481 5.50724
RightShoulder  0.259709 -1.57068 5.67719
RightArm  -25.5913 -4.14332 1.53831
RightForeArm  -1.80196 1.33139 1.31976
RightHand  -1.60948 5.55563 -17.3282
LeftUpLeg  1.88154 3.48832 0.506163
LeftLeg  2.30304 13.1438 -3.10648
LeftFoot  -4.04004 -0.0116319 0.684279
LeftToes  1.06246e-005 4.65868e-005 -8.65513e-006
17
root  71.3887 40.4402 -0.978165 -145.048 -87.8656 145.275
RightUpLeg  1.29146 -8.54541 -6.3377
RightLeg  4.64539 -2.5585 3.34163
RightFoot  -4.4103 -0.044355 0.291294
RightToes  0.000481921 0.542163 -0.142578
Spine  0.783652 0.136629 -2.96136
Spine1  4.18152 -0.518302 3.41526
HEad  4.65766 2.30109 0.0424546
LeftShoulder1  1.01555 -2.10536 -10.7857
LeftArm  -16.7465 9.79508 0.53852
LeftForeArm  20.9255 -2.17765 -1.3816
LeftHand  -0.25398 0.0180481 5.50724
RightShoulder  0.253458 -1.61626 5.66799
RightArm  -25.8609 -4.09718 1.60414
RightForeArm  -1.34932 1.37148 1.22653
RightHand  -1.62425 5.7618 -17.1774
LeftUpLeg  1.83109 3.49739 0.473556
LeftLeg  2.25292 13.1567 -3.16828
LeftFoot  -4.02168 -0.0123151 0.694899
LeftToes  1.06246e-005 4.65868e-005 -8.65513e-006
18
root  71.4035 40.4408 -0.95195 -145.268 -87.7861 145.514
RightUpLeg  1.2056 -8.58691 -6.42046
RightLeg  4.69708 -2.44239 3.3398
RightFoot  -4.39058 -0.0503846 0.384894
RightToes  0.000481921 0.542163 -0.142578
Spine  0.513843 0.125479 -2.65265
Spine1  4.58272 -0.442621 2.98396
HEad  5.25983 2.3569 0.0648948
LeftShoulder1  0.850996 -1.31248 -10.2838
LeftArm  -17.7267 9.04511 -0.551693
LeftForeArm  21.6341 -2.25136 -1.12938
LeftHand  -0.25398 0.0180481 5.50724
RightShoulder  0.25289 -1.65171 5.92772
RightArm  -26.4136 -3.96026 1.78904
RightForeArm  -0.42911 1.41502 1.03351
RightHand  -1.68915 6.32237 -17.0261
LeftUpLeg  1.82057 3.49052 0.400134
LeftLeg  2.20319 13.271 -3.22107
LeftFoot  -3.99643 -0.0216918 0.840634
LeftToes  1.06246e-005 4.65868e-005 -8.65513e-006
19
root  71.4182 40.4411 -0.911263 -145.184 -87.7484 145.39
RightUpLeg  1.20508 -8.66026 -6.53855
RightLeg  4.7338 -2.33707 3.36695
RightFoot  -4.36113 -0.055061 0.457483
RightToes  0.000481921 0.542163 -0.142578
Spine  0.389995 0.103262 -2.33408
Spine1  4.87789 -0.379647 2.55833
HEad  6.01359 2.45096 -0.129594
LeftShoulder1  0.753515 -0.794249 -10.1224
LeftArm  -18.7546 8.61892 -1.39954
LeftForeArm  22.1705 -2.7741 -0.874249
LeftHand  -0.25398 0.0180481 5.50724
RightShoulder  0.257578 -1.69095 6.54555
RightArm  -26.9312 -3.82875 1.95368
RightForeArm  -0.472431 1.85143 0.98982
RightHand  -1.77913 6.71085 -17.3543
LeftUpLeg  1.86294 3.4682 0.310218
LeftLeg  2.16632 13.365 -3.25223
LeftFoot  -3.97949 -0.032789 1.01312
LeftToes  1.06246e-005 4.65868e-005 -8.65513e-006
20
root  71.437 40.4411 -0.859807 -145.209 -87.7559 145.351
RightUpLeg  1.2428 -8.7311 -6.6467
RightLeg  4.73823 -2.25659 3.40134
RightFoot  -4.28895 -0.0554786 0.463966
RightToes  0.000481921 0.542163 -0.142578
Spine  0.395014 0.0323416 -2.18083
Spine1  5.07238 -0.435415 2.44504
HEad  7.07167 2.0766 -0.798596
LeftShoulder1  0.863526 -1.20491 -10.9959
LeftArm  -19.5478 9.42359 -1.19104
LeftForeArm  21.8429 -4.23745 -0.681823
LeftHand  -0.25398 0.0180481 5.50724
RightShoulder  0.312083 -1.41924 7.38978
RightArm  -27.2468 -4.04485 2.1854
RightForeArm  -2.14478 3.09184 1.24401
RightHand  -1.88644 6.75849 -18.2897
LeftUpLeg  1.90976 3.43935 0.234514
LeftLeg  2.13846 13.3931 -3.26842
LeftFoot  -3.97106 -0.0373707 1.08434
LeftToes  1.06246e-005 4.65868e-005 -8.65513e-006
21
root  71.4609 40.4405 -0.80119 -146.04 -87.7291 146.152
RightUpLeg  1.22917 -8.75563 -6.72234
RightLeg  4.71344 -2.17123 3.38776
RightFoot  -4.17835 -0.0581249 0.505042
RightToes  0.000481921 0.542163 -0.142578
Spine  0.284501 -0.0866818 -2.03068
Spine1  5.37934 -0.554014 2.3898
HEad  8.207 1.97036 -1.06601
LeftShoulder1  1.10282 -2.08436 -12.5822
LeftArm  -20.5876 11.0891 -0.714376
LeftForeArm  20.8596 -6.63001 -0.46872
LeftHand  -0.25398 0.0180481 5.50724
RightShoulder  0.438832 -0.738667 8.40091
RightArm  -27.6034 -4.74128 2.74622
RightForeArm  -3.92563 5.18119 1.65069
RightHand  -2.07405 7.15364 -19.4313
LeftUpLeg  1.9093 3.4163 0.161616
LeftLeg  2.1169 13.4516 -3.29668
LeftFoot  -3.97607 -0.0384412 1.10097
LeftToes  1.06246e-005 4.65868e-005 -8.65513e-006
22
root  71.4911 40.4393 -0.734741 -147.644 -87.646 147.759
RightUpLeg  1.16462 -8.7401 -6.78045
RightLeg  4.67051 -2.07487 3.32613
RightFoot  -4.06458 -0.068146 0.660582
RightToes  0.000481921 0.542163 -0.142578
Spine  0.19284 -0.135856 -1.79067
Spine1  5.54658 -0.567142 2.19925
HEad  9.67713 2.46478 -0.476627
LeftShoulder1  1.31187 -2.68792 -14.1996
LeftArm  -22.2134 12.6204 -1.20051
LeftForeArm  20.4487 -9.70921 -0.318738
LeftHand  -0.25398 0.0180481 5.50724
RightShoulder  0.588492 -0.0714379 9.84631
RightArm  -28.1378 -5.65696 3.65451
RightForeArm  -4.29874 7.90689 2.08758
RightHand  -2.3568 8.20942 -20.3494
LeftUpLeg  1.85701 3.41418 0.080993
LeftLeg  2.13033 13.5833 -3.34793
LeftFoot  -4.01583 -0.0448053 1.1999
LeftToes  1.06246e-005 4.65868e-005 -8.65513e-006
23
root  71.5339 40.4351 -0.660659 -149.17 -87.5886 149.262
RightUpLeg  1.10532 -8.74021 -6.8457
RightLeg  4.659 -1.98515 3.27931
RightFoot  -3.97864 -0.0790762 0.83022
RightToes  0.000481921 0.542163 -0.142578
Spine  0.37591 -0.0686841 -1.677
Spine1  5.3848 -0.485139 2.14097
HEad  11.9443 2.93241 -0.0724782
LeftShoulder1  1.4588 -2.92102 -15.8542
LeftArm  -24.4095 13.7002 -2.69361
LeftForeArm  22.0468 -13.2772 -0.53791
LeftHand  -0.25398 0.0180481 5.50724
RightShoulder  0.721391 0.298833 11.8806
RightArm  -28.5904 -6.55283 4.8365
RightForeArm  -3.91001 11.0815 2.66107
RightHand  -2.60021 9.13032 -21.0114
LeftUpLeg  1.77273 3.40887 -0.0021991
LeftLeg  2.235 13.7053 -3.36895
LeftFoot  -4.11398 -0.0550954 1.35986
LeftToes  1.06246e-005 4.65868e-005 -8.65513e-006
